<svg width="512" height="512" viewBox="0 0 512 512" fill="none" xmlns="http://www.w3.org/2000/svg">
<rect width="512" height="512" fill="#034FF2"/>
<circle cx="255.668" cy="132.043" r="35.0304" stroke="white" stroke-width="23.3536"/>
<line x1="200.203" y1="235.674" x2="311.132" y2="235.674" stroke="white" stroke-width="35.0304" stroke-linecap="round"/>
<path d="M279.021 386.114L255.308 404.988L230.854 386.114C230.854 386.114 237.524 387.512 237.524 375.629C237.524 365.04 237.524 212.915 237.524 179.902C237.524 175.009 234.56 172.911 234.56 172.911L276.057 172.911C276.057 172.911 273.093 175.009 273.093 179.902C273.093 212.915 273.093 365.04 273.093 375.629C273.093 387.512 279.021 386.114 279.021 386.114Z" fill="white"/>
<path d="M117.006 318.142C137.44 367.038 166.632 402.798 254.208 402.798C341.784 402.798 370.976 367.038 391.41 318.142" stroke="white" stroke-width="35.0304" stroke-linejoin="round"/>
<path d="M417.17 344.641L351.35 321.917L405.036 270.166L417.17 344.641Z" fill="white" stroke="white" stroke-width="14.0122" stroke-linejoin="round"/>
<path d="M92.3692 344.641L158.189 321.917L104.503 270.166L92.3692 344.641Z" fill="white" stroke="white" stroke-width="14.0122" stroke-linejoin="round"/>
</svg>
